<svg xmlns="http://www.w3.org/2000/svg" width="10.352" height="6.525" viewBox="0 0 10.352 6.525">
    <defs>
        <style>
            .cls-1{fill:#535252}
        </style>
    </defs>
    <g id="seta" transform="rotate(90 5.176 5.176)">
        <path id="Caminho_39" d="M88.5 4.578L84.169.252a.835.835 0 0 0-1.2 0l-.5.5a.814.814 0 0 0-.246.6.851.851 0 0 0 .246.6L85.7 5.176l-3.232 3.23a.814.814 0 0 0-.246.6.851.851 0 0 0 .246.6l.505.5a.85.85 0 0 0 1.2 0L88.5 5.781a.851.851 0 0 0 .246-.6.814.814 0 0 0-.246-.603z" class="cls-1" data-name="Caminho 39" transform="translate(-82.222)"/>
    </g>
</svg>
